<svg width="884.4" height="96" viewBox="0 0 884.4 96" xmlns="http://www.w3.org/2000/svg"><g id="svgGroup" stroke-linecap="round" fill-rule="evenodd" font-size="9pt" stroke="currentColor"><path d="M 440.9 78.9 L 440.9 36.4 L 428.1 63.4 Q 425.3 68.8 421.15 68.8 Q 417 68.8 414.2 63.1 L 401.2 36.4 L 401.2 78.9 L 387.3 78.9 L 387.3 7.7 L 401 7.7 L 421.1 48.8 L 441.1 7.7 L 454.8 7.7 L 454.8 78.9 L 440.9 78.9 Z M 246.6 40.6 L 246.6 78.9 L 233.6 78.9 L 233.6 43.4 Q 233.6 38.1 232.35 36 Q 231.1 33.9 228 33.9 L 216.3 38.8 L 216.3 78.9 L 203.3 78.9 L 203.3 43.4 Q 203.3 33.9 196.7 33.9 L 186 38.8 L 186 78.9 L 173 78.9 L 173 21.8 L 182.7 21.8 L 185.7 28.6 L 200.7 21.2 Q 208.5 21.2 212.5 28.8 L 231.1 21.2 Q 238.9 21.2 242.75 26.45 Q 246.6 31.7 246.6 40.6 Z M 813.8 49.7 L 835.9 78.9 L 820.3 78.9 L 805.3 58.7 L 799.6 66.8 L 799.6 78.9 L 786.6 78.9 L 786.6 3.7 L 799.6 3.7 L 799.6 51.2 L 817.8 24.1 L 832.5 24.1 L 813.8 49.7 Z M 105.9 40.2 L 105.9 78.9 L 92.9 78.9 L 92.9 43.1 Q 92.9 33.9 85.7 33.9 L 73.3 38.8 L 73.3 78.9 L 60.3 78.9 L 60.3 3.7 L 73.3 3.7 L 73.3 28.6 L 89.8 21.2 Q 98.6 21.2 102.25 26.2 Q 105.9 31.2 105.9 40.2 Z M 353.2 63.1 L 353.2 64.6 Q 352.6 72.1 346.85 75.9 Q 341.1 79.7 332.5 79.7 Q 319.8 79.7 314.7 75.1 Q 310 70.9 310 62.7 L 310 61.5 L 321.8 61.5 Q 321.8 66.1 324.2 67.8 Q 326.6 69.5 332.5 69.5 Q 340.5 69.5 340.5 63.7 Q 340.5 58.9 337.7 57.3 Q 336.4 56.5 334.4 56.1 L 324.3 54.4 Q 311.1 52.3 311.1 37.9 Q 311.1 29.9 316.95 25.45 Q 322.8 21 331.8 21 Q 352.3 21 352.3 38.7 L 352.3 40 L 341 40 Q 340.8 35.3 338.5 33.6 Q 336.2 31.9 332.05 31.9 Q 327.9 31.9 325.8 33.55 Q 323.7 35.2 323.7 37.2 Q 323.7 42.9 328.3 43.7 L 340.4 45.9 Q 353.2 48.3 353.2 63.1 Z M 775.9 63.1 L 775.9 64.6 Q 775.3 72.1 769.55 75.9 Q 763.8 79.7 755.2 79.7 Q 742.5 79.7 737.4 75.1 Q 732.7 70.9 732.7 62.7 L 732.7 61.5 L 744.5 61.5 Q 744.5 66.1 746.9 67.8 Q 749.3 69.5 755.2 69.5 Q 763.2 69.5 763.2 63.7 Q 763.2 58.9 760.4 57.3 Q 759.1 56.5 757.1 56.1 L 747 54.4 Q 733.8 52.3 733.8 37.9 Q 733.8 29.9 739.65 25.45 Q 745.5 21 754.5 21 Q 775 21 775 38.7 L 775 40 L 763.7 40 Q 763.5 35.3 761.2 33.6 Q 758.9 31.9 754.75 31.9 Q 750.6 31.9 748.5 33.55 Q 746.4 35.2 746.4 37.2 Q 746.4 42.9 751 43.7 L 763.1 45.9 Q 775.9 48.3 775.9 63.1 Z M 870.7 21.8 L 884.4 21.8 L 862.7 85.3 Q 861.2 89.6 858.8 92 Q 854.8 96 847.6 96 L 841.5 96 L 841.5 84.3 L 845.5 84.3 Q 848.3 84.3 849.65 83.35 Q 851 82.4 852 79.6 L 853 76.8 L 835.8 21.8 L 849.5 21.8 L 859.7 61.5 L 870.7 21.8 Z M 620.1 40.6 L 620.1 78.9 L 607.1 78.9 L 607.1 42.4 Q 607.1 37.5 605.1 35.7 Q 603.1 33.9 599.5 33.9 L 587.8 38.8 L 587.8 78.9 L 574.8 78.9 L 574.8 21.8 L 584.5 21.8 L 587.5 28.6 L 603.5 21.2 Q 610.2 21.2 615.15 26.15 Q 620.1 31.1 620.1 40.6 Z M 52 7.7 L 52 20.1 L 32.9 20.1 L 32.9 78.9 L 19 78.9 L 19 20.1 L 0 20.1 L 0 7.7 L 52 7.7 Z M 715.3 21.8 L 729 21.8 L 709.9 78.9 L 699.7 78.9 L 680.5 21.8 L 694.2 21.8 L 704.8 59 L 715.3 21.8 Z M 299.9 21.4 L 299.9 78.9 L 291.2 78.9 L 287.2 72 L 273.3 79.5 Q 261.7 79.5 257.7 71.1 Q 255.7 67 254.95 62.25 Q 254.2 57.5 254.2 52.35 Q 254.2 47.2 254.3 44.75 Q 254.4 42.3 254.8 39.05 Q 255.2 35.8 255.95 33.6 Q 256.7 31.4 258.1 29.05 Q 259.5 26.7 261.5 25.3 Q 266 22.2 273.2 22.2 L 286.9 22.2 L 299.9 21.4 Z M 507.7 21.4 L 507.7 78.9 L 499 78.9 L 495 72 L 481.1 79.5 Q 469.5 79.5 465.5 71.1 Q 463.5 67 462.75 62.25 Q 462 57.5 462 52.35 Q 462 47.2 462.1 44.75 Q 462.2 42.3 462.6 39.05 Q 463 35.8 463.75 33.6 Q 464.5 31.4 465.9 29.05 Q 467.3 26.7 469.3 25.3 Q 473.8 22.2 481 22.2 L 494.7 22.2 L 507.7 21.4 Z M 162.6 50.1 Q 162.6 68.6 155.6 74.9 Q 149.7 80.3 138.5 80.3 Q 124.2 80.3 119.2 71.9 Q 114.5 64.2 114.5 50.1 Q 114.5 36.9 119.2 29.4 Q 124.4 21 138.15 21 Q 151.9 21 157.25 28.35 Q 162.6 35.7 162.6 50.1 Z M 677 50.1 Q 677 68.6 670 74.9 Q 664.1 80.3 652.9 80.3 Q 638.6 80.3 633.6 71.9 Q 628.9 64.2 628.9 50.1 Q 628.9 36.9 633.6 29.4 Q 638.8 21 652.55 21 Q 666.3 21 671.65 28.35 Q 677 35.7 677 50.1 Z M 534.3 3.7 L 534.3 78.9 L 521.3 79 L 521.3 3.7 L 534.3 3.7 Z M 561.3 23.9 L 561.3 78.9 L 548.3 78.9 L 548.3 23.9 L 561.3 23.9 Z M 149.6 53.1 Q 149.6 59.1 147.8 63.3 Q 145.6 68.6 138.5 68.6 Q 127.5 68.6 127.5 52.7 L 127.5 47.5 Q 127.5 32.7 138.5 32.7 Q 145.3 32.7 147.45 36.6 Q 149.6 40.5 149.6 47.9 L 149.6 53.1 Z M 664 53.1 Q 664 59.1 662.2 63.3 Q 660 68.6 652.9 68.6 Q 641.9 68.6 641.9 52.7 L 641.9 47.5 Q 641.9 32.7 652.9 32.7 Q 659.7 32.7 661.85 36.6 Q 664 40.5 664 47.9 L 664 53.1 Z M 277 65.8 Q 271.3 65.8 269.25 62.4 Q 267.2 59 267.2 50.65 Q 267.2 42.3 269.35 38.1 Q 271.5 33.9 277 33.9 L 286.9 33.9 L 286.9 60.7 L 277 65.8 Z M 484.8 65.8 Q 479.1 65.8 477.05 62.4 Q 475 59 475 50.65 Q 475 42.3 477.15 38.1 Q 479.3 33.9 484.8 33.9 L 494.7 33.9 L 494.7 60.7 L 484.8 65.8 Z M 554.9 0 Q 559.6 0 561 1.45 Q 562.4 2.9 562.4 7.55 Q 562.4 12.2 560.95 13.65 Q 559.5 15.1 554.85 15.1 Q 550.2 15.1 548.75 13.6 Q 547.3 12.1 547.3 7.5 Q 547.3 2.9 548.75 1.45 Q 550.2 0 554.9 0 Z" vector-effect="non-scaling-stroke"/></g></svg>